HIERARCHY
ROOT Hips
{
	OFFSET 0.000000 0.000000 0.000000 
	CHANNELS 6 Xposition Yposition Zposition Zrotation Yrotation Xrotation
	JOINT LeftUpLeg
	{
		OFFSET 1.363060 -1.794630 0.839290 
		CHANNELS 3 Zrotation Yrotation Xrotation
		JOINT LeftLeg
		{
			OFFSET 2.448110 -6.726130 0.000000 
			CHANNELS 3 Zrotation Yrotation Xrotation
			JOINT LeftFoot
			{
				OFFSET 2.562200 -7.039590 0.000000 
				CHANNELS 3 Zrotation Yrotation Xrotation
				JOINT LeftToeBase
				{
					OFFSET 0.157640 -0.433110 2.322550 
					CHANNELS 3 Zrotation Yrotation Xrotation
					End Site
					{
						OFFSET 0.000000 0.000000 0.000000 
					}
				}
			}
		}
	}
	JOINT RightUpLeg
	{
		OFFSET -1.305520 -1.794630 0.839290 
		CHANNELS 3 Zrotation Yrotation Xrotation
		JOINT RightLeg
		{
			OFFSET -2.542530 -6.985550 0.000000 
			CHANNELS 3 Zrotation Yrotation Xrotation
			JOINT RightFoot
			{
				OFFSET -2.568260 -7.056230 0.000000 
				CHANNELS 3 Zrotation Yrotation Xrotation
				JOINT RightToeBase
				{
					OFFSET -0.164730 -0.452590 2.363150 
					CHANNELS 3 Zrotation Yrotation Xrotation
					End Site
					{
						OFFSET 0.000000 0.000000 0.000000 
					}
				}
			}
		}
	}
	JOINT Spine
	{
		OFFSET 0.028270 2.035590 -0.193380 
		CHANNELS 3 Zrotation Yrotation Xrotation
		JOINT Spine1
		{
			OFFSET 0.056720 2.048850 -0.042750 
			CHANNELS 3 Zrotation Yrotation Xrotation
			JOINT Neck1
			{
				OFFSET -0.054170 1.746240 0.172020 
				CHANNELS 3 Zrotation Yrotation Xrotation
				JOINT Head
				{
					OFFSET 0.104070 1.761360 -0.123970 
					CHANNELS 3 Zrotation Yrotation Xrotation
					End Site
					{
						OFFSET 0.000000 0.000000 0.000000 
					}
				}
			}
			JOINT LeftArm
			{
				OFFSET 3.362410 1.200890 -0.311210 
				CHANNELS 3 Zrotation Yrotation Xrotation
				JOINT LeftForeArm
				{
					OFFSET 4.983000 -0.000000 -0.000000 
					CHANNELS 3 Zrotation Yrotation Xrotation
					JOINT LeftHand
					{
						OFFSET 3.483560 -0.000000 -0.000000 
						CHANNELS 3 Zrotation Yrotation Xrotation
						JOINT LeftHandIndex1
						{
							OFFSET 0.715260 -0.000000 -0.000000 
							CHANNELS 3 Zrotation Yrotation Xrotation
							End Site
							{
								OFFSET 0.000000 0.000000 0.000000 
							}
						}
					}
				}
			}
			JOINT RightArm
			{
				OFFSET -3.136600 1.374050 -0.404650 
				CHANNELS 3 Zrotation Yrotation Xrotation
				JOINT RightForeArm
				{
					OFFSET -5.241900 -0.000000 -0.000000 
					CHANNELS 3 Zrotation Yrotation Xrotation
					JOINT RightHand
					{
						OFFSET -3.444170 -0.000000 -0.000000 
						CHANNELS 3 Zrotation Yrotation Xrotation
						JOINT RightHandIndex1
						{
							OFFSET -0.622530 -0.000000 -0.000000 
							CHANNELS 3 Zrotation Yrotation Xrotation
							End Site
							{
								OFFSET 0.000000 0.000000 0.000000 
							}
						}
					}
				}
			}
		}
	}
}
MOTION
Frames: 16
Frame Time: 0.041667
1.998296 17.812232 38.847295 -177.001075 -0.310001 -175.921378 -6.768082 -2.177716 -9.418983 0.624096 9.083200 23.600753 -4.810854 18.801346 -4.586882 0.312100 -3.591300 -9.929600 12.510564 -0.765916 -11.527464 -1.550924 -9.947100 26.332563 4.885065 -20.427309 -8.172913 -0.034200 1.193300 -3.281000 2.624280 -0.075336 -0.910367 2.043778 -0.093252 -0.355348 -0.085047 2.484644 10.291523 -3.014200 1.175800 8.819800 -94.103745 7.725940 16.560993 16.296271 -25.588500 -3.374908 0.205319 0.423513 -6.002612 -7.125000 0.000000 0.000000 85.100435 -3.269354 12.685565 -15.463486 24.958132 -3.328128 0.079046 -0.550085 -4.684686 7.125000 0.000000 0.000000 
2.006152 17.811039 38.842522 -177.003374 -0.362313 -175.943700 -6.747217 -2.240810 -9.366295 0.623248 9.082440 23.593832 -4.824771 18.848105 -4.586567 0.314700 -3.606100 -9.971000 12.540442 -0.813305 -11.508446 -1.554648 -9.954602 26.356919 4.882728 -20.423210 -8.215504 -0.034200 1.194300 -3.283700 2.564019 -0.288070 -0.885886 1.860882 -0.202944 -0.318347 0.093465 2.628775 10.391980 -2.906100 1.254200 8.874400 -94.173881 7.878802 16.496149 16.468211 -25.816304 -3.441974 0.203116 0.424363 -6.093473 -7.125000 0.000000 0.000000 85.175078 -3.167948 12.913637 -15.258348 24.699142 -3.251186 0.075287 -0.548245 -4.531655 7.125000 0.000000 0.000000 
2.015500 17.808354 38.835959 -176.990217 -0.290550 -176.016165 -6.722759 -2.199206 -9.272325 0.625114 9.085864 23.596052 -4.840384 18.903198 -4.624262 0.317000 -3.619400 -10.008400 12.585486 -0.796282 -11.420824 -1.558527 -9.965428 26.389527 4.870184 -20.385712 -8.240857 -0.034900 1.205700 -3.315000 2.469304 -0.388820 -0.837659 1.626077 -0.195209 -0.299339 0.289050 2.685365 10.614566 -2.809900 1.300300 8.991300 -94.139368 8.008070 16.507669 16.633620 -26.030198 -3.506229 0.200764 0.424876 -6.223323 -7.125000 0.000000 0.000000 85.341860 -3.069339 13.010540 -15.061409 24.452586 -3.178356 0.072019 -0.546348 -4.269336 7.125000 0.000000 0.000000 
2.026936 17.804973 38.829395 -176.969692 -0.169223 -176.107971 -6.687288 -2.070882 -9.179516 0.628961 9.090851 23.604063 -4.843153 18.916924 -4.656930 0.319400 -3.632600 -10.045200 12.646417 -0.737139 -11.296390 -1.562004 -9.977486 26.423452 4.858057 -20.352210 -8.269831 -0.035700 1.220200 -3.354800 2.422341 -0.349062 -0.786555 1.536909 -0.180979 -0.295608 0.396986 2.599195 10.891515 -2.772900 1.278300 9.130400 -94.088656 8.099263 16.778373 16.772337 -26.209489 -3.560730 0.199391 0.425380 -6.349520 -7.125000 0.000000 0.000000 85.487542 -3.046092 12.823138 -14.897420 24.244348 -3.119005 0.069869 -0.544787 -3.999094 7.125000 0.000000 0.000000 
2.038073 17.802288 38.823230 -176.955727 -0.076670 -176.186687 -6.655657 -1.961765 -9.100769 0.632373 9.094775 23.611360 -4.842694 18.919673 -4.677865 0.321800 -3.646400 -10.084000 12.699698 -0.695832 -11.190638 -1.564400 -9.987371 26.449549 4.848950 -20.328166 -8.294297 -0.036700 1.236600 -3.400000 2.400696 -0.249591 -0.754128 1.519501 -0.134314 -0.299027 0.441179 2.474970 11.054718 -2.773200 1.233000 9.202500 -94.039137 8.201222 17.160277 16.888849 -26.359885 -3.606801 0.198536 0.425297 -6.451990 -7.125000 0.000000 0.000000 85.610548 -3.104452 12.504757 -14.756208 24.061660 -3.068050 0.068673 -0.543291 -3.732148 7.125000 0.000000 0.000000 
2.046029 17.802288 38.818258 -176.955103 -0.136628 -176.177458 -6.627613 -2.012006 -9.085374 0.632266 9.093732 23.607908 -4.847131 18.932619 -4.665094 0.324200 -3.659800 -10.121400 12.730978 -0.746576 -11.202850 -1.566594 -9.992007 26.463515 4.849103 -20.331229 -8.320593 -0.037400 1.249000 -3.434300 2.394938 -0.226152 -0.729954 1.514958 -0.123951 -0.235380 0.466200 2.402735 11.078736 -2.772000 1.202700 9.208400 -94.035203 8.258126 17.477053 16.990886 -26.494672 -3.648351 0.198567 0.425430 -6.542138 -7.125000 0.000000 0.000000 85.681057 -3.130880 12.210635 -14.616108 23.877953 -3.017652 0.067588 -0.541483 -3.479158 7.125000 0.000000 0.000000 
2.051995 17.804675 38.814081 -176.964072 -0.322013 -176.094794 -6.598602 -2.181946 -9.125800 0.628848 9.087013 23.591754 -4.853240 18.946484 -4.618869 0.326300 -3.671600 -10.154500 12.749112 -0.859878 -11.308004 -1.568347 -9.992528 26.467431 4.860145 -20.369035 -8.355363 -0.037700 1.253600 -3.446800 2.394806 -0.332070 -0.740879 1.493895 -0.234480 -0.167108 0.500689 2.441684 10.906171 -2.747700 1.213500 9.121100 -94.084463 8.324519 17.622504 17.090924 -26.628444 -3.689770 0.198802 0.425847 -6.633255 -7.125000 0.000000 0.000000 85.701133 -3.151280 12.059025 -14.479060 23.696238 -2.967998 0.066934 -0.539747 -3.238613 7.125000 0.000000 0.000000 
2.059056 17.806663 38.809905 -176.971138 -0.507675 -176.029182 -6.562400 -2.318227 -9.161553 0.625720 9.079355 23.574165 -4.851102 18.933302 -4.564568 0.329000 -3.686600 -10.196600 12.777117 -0.964351 -11.389496 -1.569410 -9.992668 26.468905 4.873730 -20.417278 -8.405005 -0.037600 1.251300 -3.440600 2.410529 -0.459120 -0.755368 1.493143 -0.295814 -0.109637 0.526474 2.558843 10.610177 -2.713600 1.253900 8.972200 -94.179228 8.417657 17.640575 17.188780 -26.760321 -3.730704 0.198981 0.425836 -6.710086 -7.125000 0.000000 0.000000 85.672782 -3.201121 12.035753 -14.350451 23.522925 -2.920815 0.065429 -0.537436 -3.063038 7.125000 0.000000 0.000000 
2.070591 17.808354 38.803839 -176.970275 -0.535910 -175.960571 -6.513117 -2.262319 -9.232594 0.625531 9.071882 23.559222 -4.837128 18.881791 -4.515063 0.332300 -3.704900 -10.248000 12.824959 -0.936471 -11.430595 -1.569381 -9.993548 26.472809 4.885504 -20.459908 -8.451328 -0.037400 1.248600 -3.433200 2.432464 -0.532918 -0.766786 1.528305 -0.331921 -0.045342 0.556347 2.650913 10.437543 -2.677900 1.288000 8.881700 -94.266638 8.517546 17.595567 17.283250 -26.886664 -3.770471 0.199330 0.425871 -6.780051 -7.125000 0.000000 0.000000 85.646562 -3.258111 12.052691 -14.234720 23.367047 -2.878537 0.064480 -0.535404 -2.898668 7.125000 0.000000 0.000000 
2.085308 17.807757 38.797773 -176.958770 -0.475910 -175.977436 -6.456256 -2.084416 -9.244636 0.627920 9.068297 23.552333 -4.812366 18.799589 -4.481848 0.336000 -3.725000 -10.304100 12.897344 -0.844804 -11.360594 -1.569697 -9.998791 26.485928 4.895969 -20.503545 -8.514220 -0.037300 1.245900 -3.425700 2.458369 -0.615373 -0.765961 1.574031 -0.374060 -0.025708 0.616413 2.764890 10.372152 -2.622400 1.338400 8.841300 -94.371804 8.643391 17.417512 17.381631 -27.017029 -3.811965 0.200023 0.426179 -6.841241 -7.125000 0.000000 0.000000 85.607021 -3.315761 12.181863 -14.123180 23.216691 -2.837805 0.063512 -0.533458 -2.736542 7.125000 0.000000 0.000000 
2.100125 17.805967 38.790513 -176.938435 -0.329795 -176.029756 -6.404690 -1.860131 -9.215006 0.631459 9.067727 23.549905 -4.796230 18.748740 -4.486277 0.338700 -3.740100 -10.346500 12.974350 -0.715826 -11.243159 -1.570750 -10.006879 26.507118 4.897807 -20.518817 -8.565385 -0.037600 1.251100 -3.439900 2.457728 -0.565999 -0.754911 1.602175 -0.352040 -0.035082 0.649596 2.707455 10.583883 -2.612500 1.323600 8.935400 -94.358334 8.737652 17.441150 17.459315 -27.116023 -3.844100 0.200632 0.426573 -6.906872 -7.125000 0.000000 0.000000 85.664302 -3.396766 12.080224 -14.026096 23.088196 -2.803621 0.062474 -0.532062 -2.571564 7.125000 0.000000 0.000000 
2.114346 17.803879 38.783552 -176.915185 -0.207901 -176.096598 -6.351305 -1.670215 -9.167026 0.635184 9.069181 23.552104 -4.782294 18.705334 -4.497044 0.340500 -3.749800 -10.373700 13.054857 -0.606188 -11.114468 -1.571685 -10.014229 26.526621 4.900561 -20.537808 -8.620553 -0.037900 1.255900 -3.453300 2.454758 -0.510115 -0.734011 1.622701 -0.268914 -0.040388 0.687971 2.603305 10.988576 -2.605100 1.296900 9.120900 -94.338481 8.815603 17.435964 17.529900 -27.205300 -3.873620 0.201828 0.428121 -6.985185 -7.125000 0.000000 0.000000 85.726002 -3.451553 11.964068 -13.925031 22.955286 -2.768661 0.061097 -0.530630 -2.397909 7.125000 0.000000 0.000000 
2.128168 17.800796 38.776890 -176.896526 -0.100007 -176.204270 -6.307370 -1.495510 -9.076802 0.639334 9.073354 23.559485 -4.768591 18.666180 -4.513873 0.342100 -3.758400 -10.397800 13.131259 -0.514869 -10.942956 -1.572002 -10.021009 26.541784 4.903810 -20.560284 -8.682099 -0.038400 1.264000 -3.475600 2.448969 -0.473053 -0.704051 1.644395 -0.255800 -0.061029 0.732269 2.501068 11.376572 -2.597300 1.271600 9.302200 -94.306645 8.871930 17.425327 17.586942 -27.276765 -3.897479 0.203163 0.429291 -7.052539 -7.125000 0.000000 0.000000 85.794682 -3.483892 11.817226 -13.819187 22.815913 -2.732571 0.059534 -0.529217 -2.213724 7.125000 0.000000 0.000000 
2.136621 17.800200 38.771619 -176.894242 -0.184352 -176.240620 -6.279852 -1.558360 -9.014682 0.639147 9.074840 23.560108 -4.770640 18.673890 -4.517100 0.342200 -3.759000 -10.399600 13.172727 -0.567677 -10.890001 -1.572533 -10.023090 26.546133 4.911103 -20.592145 -8.738946 -0.038700 1.269000 -3.489400 2.441859 -0.499079 -0.680507 1.643847 -0.272785 -0.031456 0.759214 2.413274 11.633756 -2.596900 1.245900 9.423700 -94.281701 8.874741 17.435233 17.625363 -27.326069 -3.914098 0.204490 0.430598 -7.117053 -7.125000 0.000000 0.000000 85.844247 -3.482030 11.617829 -13.709930 22.670877 -2.695740 0.057756 -0.527725 -2.032999 7.125000 0.000000 0.000000 
2.144576 17.799603 38.766647 -176.895620 -0.284408 -176.280979 -6.256626 -1.634806 -8.947947 0.638504 9.076176 23.560805 -4.771887 18.679265 -4.520922 0.341500 -3.755300 -10.389200 13.208349 -0.634260 -10.834546 -1.571953 -10.022991 26.542703 4.918162 -20.622842 -8.790377 -0.038900 1.272900 -3.500100 2.432153 -0.532233 -0.655485 1.638074 -0.292146 -0.006730 0.795116 2.350456 11.774441 -2.588900 1.226000 9.491800 -94.250015 8.860323 17.420314 17.652043 -27.360369 -3.925763 0.205623 0.432111 -7.197314 -7.125000 0.000000 0.000000 85.890527 -3.474560 11.437704 -13.605766 22.532310 -2.661090 0.056153 -0.526764 -1.876053 7.125000 0.000000 0.000000 
2.151736 17.799006 38.762172 -176.891607 -0.413124 -176.328813 -6.229512 -1.731596 -8.872976 0.637998 9.077496 23.562876 -4.770728 18.676060 -4.524169 0.339900 -3.746700 -10.365000 13.247507 -0.726657 -10.775040 -1.569390 -10.019934 26.527952 4.924976 -20.653403 -8.836566 -0.039000 1.274000 -3.503000 2.423344 -0.602993 -0.648051 1.619270 -0.384748 -0.018169 0.832483 2.374132 11.624255 -2.572700 1.232600 9.420100 -94.221854 8.864620 17.364304 17.675136 -27.389970 -3.935847 0.206200 0.433403 -7.296294 -7.125000 0.000000 0.000000 85.924303 -3.501748 11.313040 -13.513661 22.408145 -2.630658 0.054581 -0.526263 -1.745624 7.125000 0.000000 0.000000 
